<svg xmlns="http://www.w3.org/2000/svg" xmlns:xlink="http://www.w3.org/1999/xlink" width="500" zoomAndPan="magnify" viewBox="0 0 375 374.999991" height="500" preserveAspectRatio="xMidYMid meet" version="1.0"><path fill="#d00e00" d="M 130.816406 2.152344 C 130.816406 2.152344 51.269531 3.199219 52.300781 75.253906 C 53.332031 147.308594 67.800781 211.023438 91.5625 246.53125 C 115.324219 282.039062 176.261719 374.984375 245.484375 365.589844 C 245.484375 365.589844 279.574219 358.277344 305.394531 341.5625 L 221.722656 275.769531 C 221.722656 275.769531 196.929688 291.4375 181.433594 270.546875 C 165.9375 249.65625 117.386719 152.539062 117.386719 152.539062 C 117.386719 152.539062 103.957031 121.207031 133.914062 107.632812 Z M 130.816406 2.152344 " fill-opacity="1" fill-rule="nonzero"/><path fill="#d00e00" d="M 140.113281 2.152344 C 140.113281 2.152344 146.3125 0.0742188 157.671875 6.332031 C 169.03125 12.59375 169.035156 17.8125 169.035156 17.8125 L 170.070312 89.878906 C 170.070312 89.878906 166.96875 94.058594 162.839844 98.230469 C 158.707031 102.40625 145.277344 108.675781 143.207031 104.496094 C 141.148438 100.324219 140.113281 2.152344 140.113281 2.152344 Z M 140.113281 2.152344 " fill-opacity="1" fill-rule="nonzero"/><path fill="#d00e00" d="M 228.679688 268.070312 L 251.683594 255.925781 C 251.683594 255.925781 256.847656 254.886719 265.109375 260.101562 C 273.371094 265.335938 316.761719 299.800781 316.761719 299.800781 C 316.761719 299.800781 323.992188 306.0625 321.925781 313.375 C 319.859375 320.683594 314.695312 336.351562 314.695312 336.351562 Z M 228.679688 268.070312 " fill-opacity="1" fill-rule="nonzero"/></svg>