<svg xmlns="http://www.w3.org/2000/svg" xmlns:xlink="http://www.w3.org/1999/xlink" width="500" zoomAndPan="magnify" viewBox="0 0 375 374.999991" height="500" preserveAspectRatio="xMidYMid meet" version="1.0"><path fill="#46cc6b" d="M 374.992188 187.5625 C 374.992188 291.046875 291.097656 374.941406 187.613281 374.941406 C 173.941406 374.960938 160.433594 373.496094 147.085938 370.546875 C 133.734375 367.597656 120.867188 363.234375 108.476562 357.457031 C 104.757812 355.722656 100.929688 354.285156 96.984375 353.15625 C 93.042969 352.023438 89.035156 351.207031 84.960938 350.710938 C 80.890625 350.210938 76.804688 350.039062 72.703125 350.183594 C 68.601562 350.332031 64.539062 350.800781 60.515625 351.59375 L 31.261719 357.351562 C 18.867188 359.792969 9.210938 346.726562 15.183594 335.59375 C 26.75 314.03125 27.671875 288.257812 17.414062 266.042969 C 11.765625 253.8125 7.496094 241.117188 4.597656 227.957031 C 1.703125 214.800781 0.25 201.484375 0.234375 188.011719 C -0.0078125 84.433594 83.757812 0.332031 187.335938 0.183594 C 290.949219 0.03125 374.992188 83.984375 374.992188 187.5625 Z M 374.992188 187.5625 " fill-opacity="1" fill-rule="nonzero"/><path fill="#ffffff" d="M 348.011719 187.5625 C 348.011719 190.1875 347.945312 192.808594 347.816406 195.433594 C 347.6875 198.054688 347.496094 200.671875 347.238281 203.285156 C 346.980469 205.894531 346.660156 208.5 346.273438 211.097656 C 345.890625 213.695312 345.441406 216.277344 344.929688 218.855469 C 344.414062 221.429688 343.839844 223.988281 343.203125 226.535156 C 342.566406 229.082031 341.867188 231.609375 341.101562 234.121094 C 340.339844 236.632812 339.519531 239.125 338.632812 241.597656 C 337.75 244.070312 336.804688 246.519531 335.800781 248.941406 C 334.796875 251.367188 333.734375 253.765625 332.609375 256.140625 C 331.488281 258.511719 330.308594 260.855469 329.070312 263.171875 C 327.832031 265.488281 326.539062 267.769531 325.191406 270.023438 C 323.839844 272.273438 322.4375 274.492188 320.976562 276.671875 C 319.519531 278.855469 318.007812 281 316.445312 283.109375 C 314.882812 285.21875 313.265625 287.289062 311.601562 289.316406 C 309.9375 291.34375 308.222656 293.332031 306.460938 295.277344 C 304.695312 297.222656 302.886719 299.125 301.03125 300.980469 C 299.175781 302.835938 297.273438 304.644531 295.328125 306.40625 C 293.382812 308.171875 291.398438 309.886719 289.367188 311.550781 C 287.339844 313.214844 285.269531 314.828125 283.160156 316.394531 C 281.054688 317.957031 278.90625 319.46875 276.726562 320.925781 C 274.542969 322.386719 272.324219 323.789062 270.074219 325.140625 C 267.820312 326.488281 265.539062 327.78125 263.222656 329.019531 C 260.910156 330.257812 258.566406 331.4375 256.191406 332.558594 C 253.820312 333.679688 251.417969 334.746094 248.996094 335.75 C 246.570312 336.753906 244.121094 337.699219 241.648438 338.582031 C 239.175781 339.464844 236.6875 340.289062 234.171875 341.050781 C 231.660156 341.8125 229.132812 342.515625 226.585938 343.152344 C 224.039062 343.789062 221.480469 344.363281 218.90625 344.875 C 216.332031 345.390625 213.746094 345.835938 211.148438 346.222656 C 208.550781 346.609375 205.945312 346.929688 203.335938 347.1875 C 200.722656 347.445312 198.105469 347.636719 195.484375 347.765625 C 192.863281 347.894531 190.238281 347.957031 187.613281 347.957031 C 184.988281 347.957031 182.363281 347.894531 179.742188 347.765625 C 177.121094 347.636719 174.503906 347.445312 171.890625 347.1875 C 169.277344 346.929688 166.675781 346.609375 164.078125 346.222656 C 161.480469 345.835938 158.894531 345.390625 156.320312 344.875 C 153.746094 344.363281 151.1875 343.789062 148.640625 343.152344 C 146.09375 342.515625 143.5625 341.8125 141.050781 341.050781 C 138.539062 340.289062 136.046875 339.464844 133.578125 338.582031 C 131.105469 337.699219 128.65625 336.753906 126.230469 335.75 C 123.804688 334.746094 121.40625 333.679688 119.035156 332.558594 C 116.660156 331.4375 114.316406 330.257812 112.003906 329.019531 C 109.6875 327.78125 107.402344 326.488281 105.152344 325.140625 C 102.902344 323.789062 100.683594 322.386719 98.5 320.925781 C 96.320312 319.46875 94.171875 317.957031 92.066406 316.394531 C 89.957031 314.828125 87.886719 313.214844 85.859375 311.550781 C 83.828125 309.886719 81.84375 308.171875 79.898438 306.40625 C 77.953125 304.644531 76.050781 302.835938 74.195312 300.980469 C 72.339844 299.125 70.53125 297.222656 68.765625 295.277344 C 67.003906 293.332031 65.289062 291.34375 63.625 289.316406 C 61.960938 287.289062 60.34375 285.21875 58.78125 283.109375 C 57.21875 281 55.707031 278.855469 54.246094 276.671875 C 52.789062 274.492188 51.386719 272.273438 50.035156 270.023438 C 48.6875 267.769531 47.394531 265.488281 46.15625 263.171875 C 44.917969 260.855469 43.738281 258.511719 42.617188 256.140625 C 41.492188 253.765625 40.429688 251.367188 39.425781 248.941406 C 38.421875 246.519531 37.476562 244.070312 36.59375 241.597656 C 35.707031 239.125 34.882812 236.632812 34.121094 234.121094 C 33.359375 231.609375 32.660156 229.082031 32.023438 226.535156 C 31.386719 223.988281 30.808594 221.429688 30.296875 218.855469 C 29.785156 216.277344 29.335938 213.695312 28.953125 211.097656 C 28.566406 208.5 28.246094 205.894531 27.988281 203.285156 C 27.730469 200.671875 27.539062 198.054688 27.410156 195.433594 C 27.28125 192.808594 27.214844 190.1875 27.214844 187.5625 C 27.214844 184.9375 27.28125 182.3125 27.410156 179.691406 C 27.539062 177.070312 27.730469 174.453125 27.988281 171.839844 C 28.246094 169.226562 28.566406 166.625 28.953125 164.027344 C 29.335938 161.429688 29.785156 158.84375 30.296875 156.269531 C 30.808594 153.695312 31.386719 151.132812 32.023438 148.589844 C 32.660156 146.042969 33.359375 143.511719 34.121094 141 C 34.882812 138.488281 35.707031 135.996094 36.59375 133.527344 C 37.476562 131.054688 38.421875 128.605469 39.425781 126.179688 C 40.429688 123.753906 41.492188 121.355469 42.617188 118.984375 C 43.738281 116.609375 44.917969 114.265625 46.15625 111.949219 C 47.394531 109.636719 48.6875 107.351562 50.035156 105.101562 C 51.386719 102.847656 52.789062 100.632812 54.246094 98.449219 C 55.707031 96.265625 57.21875 94.121094 58.78125 92.011719 C 60.34375 89.90625 61.960938 87.835938 63.625 85.808594 C 65.289062 83.777344 67.003906 81.789062 68.765625 79.84375 C 70.53125 77.902344 72.339844 76 74.195312 74.144531 C 76.050781 72.289062 77.953125 70.476562 79.898438 68.714844 C 81.84375 66.953125 83.828125 65.238281 85.859375 63.574219 C 87.886719 61.90625 89.957031 60.292969 92.066406 58.730469 C 94.171875 57.164062 96.320312 55.65625 98.5 54.195312 C 100.683594 52.738281 102.902344 51.335938 105.152344 49.984375 C 107.402344 48.636719 109.6875 47.339844 112.003906 46.105469 C 114.316406 44.867188 116.660156 43.6875 119.035156 42.566406 C 121.40625 41.441406 123.804688 40.378906 126.230469 39.375 C 128.65625 38.371094 131.105469 37.425781 133.578125 36.539062 C 136.046875 35.65625 138.539062 34.832031 141.050781 34.070312 C 143.5625 33.308594 146.09375 32.609375 148.640625 31.972656 C 151.1875 31.332031 153.746094 30.757812 156.320312 30.246094 C 158.894531 29.734375 161.480469 29.285156 164.078125 28.902344 C 166.675781 28.515625 169.277344 28.195312 171.890625 27.9375 C 174.503906 27.679688 177.121094 27.488281 179.742188 27.359375 C 182.363281 27.230469 184.988281 27.164062 187.613281 27.164062 C 190.238281 27.164062 192.863281 27.230469 195.484375 27.359375 C 198.105469 27.488281 200.722656 27.679688 203.335938 27.9375 C 205.945312 28.195312 208.550781 28.515625 211.148438 28.902344 C 213.746094 29.285156 216.332031 29.734375 218.90625 30.246094 C 221.480469 30.757812 224.039062 31.332031 226.585938 31.972656 C 229.132812 32.609375 231.660156 33.308594 234.171875 34.070312 C 236.6875 34.832031 239.175781 35.65625 241.648438 36.539062 C 244.121094 37.425781 246.570312 38.371094 248.996094 39.375 C 251.417969 40.378906 253.820312 41.441406 256.191406 42.566406 C 258.566406 43.6875 260.910156 44.867188 263.222656 46.105469 C 265.539062 47.339844 267.820312 48.636719 270.074219 49.984375 C 272.324219 51.335938 274.542969 52.738281 276.726562 54.195312 C 278.90625 55.65625 281.054688 57.164062 283.160156 58.730469 C 285.269531 60.292969 287.339844 61.90625 289.367188 63.574219 C 291.398438 65.238281 293.382812 66.953125 295.328125 68.714844 C 297.273438 70.476562 299.175781 72.289062 301.03125 74.144531 C 302.886719 76 304.695312 77.902344 306.460938 79.84375 C 308.222656 81.789062 309.9375 83.777344 311.601562 85.808594 C 313.265625 87.835938 314.882812 89.90625 316.445312 92.011719 C 318.007812 94.121094 319.519531 96.265625 320.976562 98.449219 C 322.4375 100.632812 323.839844 102.847656 325.191406 105.101562 C 326.539062 107.351562 327.832031 109.636719 329.070312 111.949219 C 330.308594 114.265625 331.488281 116.609375 332.609375 118.984375 C 333.734375 121.355469 334.796875 123.753906 335.800781 126.179688 C 336.804688 128.605469 337.75 131.054688 338.632812 133.527344 C 339.519531 135.996094 340.339844 138.488281 341.101562 141 C 341.867188 143.511719 342.566406 146.042969 343.203125 148.589844 C 343.839844 151.132812 344.414062 153.695312 344.929688 156.269531 C 345.441406 158.84375 345.890625 161.429688 346.273438 164.027344 C 346.660156 166.625 346.980469 169.226562 347.238281 171.839844 C 347.496094 174.453125 347.6875 177.070312 347.816406 179.691406 C 347.945312 182.3125 348.011719 184.9375 348.011719 187.5625 Z M 348.011719 187.5625 " fill-opacity="1" fill-rule="nonzero"/><path fill="#46cc6b" d="M 319.367188 187.5625 C 319.367188 189.71875 319.316406 191.871094 319.210938 194.027344 C 319.101562 196.179688 318.945312 198.328125 318.734375 200.476562 C 318.523438 202.621094 318.257812 204.761719 317.941406 206.894531 C 317.625 209.027344 317.257812 211.152344 316.835938 213.265625 C 316.414062 215.378906 315.941406 217.484375 315.417969 219.574219 C 314.894531 221.667969 314.320312 223.746094 313.695312 225.808594 C 313.070312 227.871094 312.390625 229.917969 311.664062 231.949219 C 310.9375 233.980469 310.164062 235.988281 309.339844 237.980469 C 308.511719 239.972656 307.640625 241.945312 306.71875 243.894531 C 305.796875 245.84375 304.828125 247.769531 303.808594 249.671875 C 302.792969 251.570312 301.730469 253.449219 300.621094 255.296875 C 299.515625 257.148438 298.359375 258.96875 297.164062 260.761719 C 295.964844 262.554688 294.722656 264.316406 293.4375 266.046875 C 292.15625 267.78125 290.828125 269.480469 289.460938 271.144531 C 288.09375 272.8125 286.683594 274.445312 285.238281 276.042969 C 283.789062 277.640625 282.300781 279.203125 280.777344 280.726562 C 279.253906 282.25 277.691406 283.738281 276.09375 285.183594 C 274.496094 286.632812 272.863281 288.042969 271.199219 289.410156 C 269.53125 290.777344 267.832031 292.101562 266.097656 293.386719 C 264.367188 294.671875 262.605469 295.914062 260.8125 297.113281 C 259.019531 298.308594 257.199219 299.460938 255.347656 300.570312 C 253.5 301.679688 251.625 302.742188 249.722656 303.757812 C 247.820312 304.773438 245.894531 305.746094 243.945312 306.667969 C 241.996094 307.589844 240.027344 308.460938 238.035156 309.285156 C 236.042969 310.113281 234.03125 310.886719 232 311.613281 C 229.96875 312.339844 227.921875 313.015625 225.859375 313.644531 C 223.796875 314.269531 221.71875 314.84375 219.625 315.367188 C 217.535156 315.890625 215.433594 316.363281 213.316406 316.785156 C 211.203125 317.207031 209.078125 317.574219 206.945312 317.890625 C 204.8125 318.207031 202.671875 318.46875 200.527344 318.683594 C 198.382812 318.894531 196.230469 319.050781 194.078125 319.15625 C 191.925781 319.261719 189.769531 319.316406 187.613281 319.316406 C 185.457031 319.316406 183.300781 319.261719 181.148438 319.15625 C 178.996094 319.050781 176.84375 318.894531 174.699219 318.683594 C 172.554688 318.46875 170.414062 318.207031 168.28125 317.890625 C 166.148438 317.574219 164.023438 317.207031 161.910156 316.785156 C 159.792969 316.363281 157.691406 315.890625 155.597656 315.367188 C 153.507812 314.84375 151.429688 314.269531 149.367188 313.644531 C 147.304688 313.015625 145.257812 312.339844 143.226562 311.613281 C 141.195312 310.886719 139.183594 310.113281 137.191406 309.285156 C 135.199219 308.460938 133.230469 307.589844 131.28125 306.667969 C 129.332031 305.746094 127.40625 304.773438 125.503906 303.757812 C 123.601562 302.742188 121.726562 301.679688 119.878906 300.570312 C 118.027344 299.460938 116.207031 298.308594 114.414062 297.113281 C 112.621094 295.914062 110.859375 294.671875 109.125 293.386719 C 107.394531 292.101562 105.695312 290.777344 104.027344 289.410156 C 102.363281 288.042969 100.730469 286.632812 99.132812 285.183594 C 97.535156 283.738281 95.972656 282.25 94.449219 280.726562 C 92.921875 279.203125 91.4375 277.640625 89.988281 276.042969 C 88.542969 274.445312 87.132812 272.8125 85.765625 271.144531 C 84.398438 269.480469 83.070312 267.78125 81.785156 266.046875 C 80.503906 264.316406 79.261719 262.554688 78.0625 260.761719 C 76.863281 258.96875 75.710938 257.148438 74.601562 255.296875 C 73.496094 253.449219 72.433594 251.570312 71.414062 249.671875 C 70.398438 247.769531 69.429688 245.84375 68.507812 243.894531 C 67.585938 241.945312 66.710938 239.972656 65.886719 237.980469 C 65.0625 235.988281 64.285156 233.980469 63.558594 231.949219 C 62.832031 229.917969 62.15625 227.871094 61.53125 225.808594 C 60.90625 223.746094 60.332031 221.667969 59.808594 219.574219 C 59.28125 217.484375 58.8125 215.378906 58.390625 213.265625 C 57.96875 211.152344 57.601562 209.027344 57.285156 206.894531 C 56.96875 204.761719 56.703125 202.621094 56.492188 200.476562 C 56.28125 198.328125 56.121094 196.179688 56.015625 194.027344 C 55.910156 191.871094 55.859375 189.71875 55.859375 187.5625 C 55.859375 185.40625 55.910156 183.25 56.015625 181.097656 C 56.121094 178.941406 56.28125 176.792969 56.492188 174.648438 C 56.703125 172.5 56.96875 170.363281 57.285156 168.230469 C 57.601562 166.097656 57.96875 163.972656 58.390625 161.859375 C 58.8125 159.742188 59.28125 157.640625 59.808594 155.546875 C 60.332031 153.457031 60.90625 151.378906 61.53125 149.316406 C 62.15625 147.25 62.832031 145.203125 63.558594 143.175781 C 64.285156 141.144531 65.0625 139.132812 65.886719 137.140625 C 66.710938 135.148438 67.585938 133.179688 68.507812 131.230469 C 69.429688 129.28125 70.398438 127.355469 71.414062 125.453125 C 72.433594 123.550781 73.496094 121.675781 74.601562 119.828125 C 75.710938 117.976562 76.863281 116.15625 78.0625 114.363281 C 79.261719 112.570312 80.503906 110.808594 81.785156 109.074219 C 83.070312 107.34375 84.398438 105.644531 85.765625 103.976562 C 87.132812 102.308594 88.542969 100.679688 89.988281 99.082031 C 91.4375 97.484375 92.921875 95.921875 94.449219 94.398438 C 95.972656 92.871094 97.535156 91.386719 99.132812 89.9375 C 100.730469 88.488281 102.363281 87.082031 104.027344 85.714844 C 105.695312 84.347656 107.394531 83.019531 109.125 81.734375 C 110.859375 80.449219 112.621094 79.210938 114.414062 78.011719 C 116.207031 76.8125 118.027344 75.660156 119.878906 74.550781 C 121.726562 73.441406 123.601562 72.378906 125.503906 71.363281 C 127.40625 70.347656 129.332031 69.378906 131.28125 68.457031 C 133.230469 67.535156 135.199219 66.660156 137.191406 65.835938 C 139.183594 65.011719 141.195312 64.234375 143.226562 63.507812 C 145.257812 62.78125 147.304688 62.105469 149.367188 61.480469 C 151.429688 60.855469 153.507812 60.28125 155.597656 59.753906 C 157.691406 59.230469 159.792969 58.757812 161.910156 58.339844 C 164.023438 57.917969 166.148438 57.550781 168.28125 57.234375 C 170.414062 56.917969 172.554688 56.652344 174.699219 56.441406 C 176.84375 56.230469 178.996094 56.070312 181.148438 55.964844 C 183.300781 55.859375 185.457031 55.808594 187.613281 55.808594 C 189.769531 55.808594 191.925781 55.859375 194.078125 55.964844 C 196.230469 56.070312 198.382812 56.230469 200.527344 56.441406 C 202.671875 56.652344 204.8125 56.917969 206.945312 57.234375 C 209.078125 57.550781 211.203125 57.917969 213.316406 58.339844 C 215.433594 58.757812 217.535156 59.230469 219.625 59.753906 C 221.71875 60.28125 223.796875 60.855469 225.859375 61.480469 C 227.921875 62.105469 229.96875 62.78125 232 63.507812 C 234.03125 64.234375 236.042969 65.011719 238.035156 65.835938 C 240.027344 66.660156 241.996094 67.535156 243.945312 68.457031 C 245.894531 69.378906 247.820312 70.347656 249.722656 71.363281 C 251.625 72.378906 253.5 73.441406 255.347656 74.550781 C 257.199219 75.660156 259.019531 76.8125 260.8125 78.011719 C 262.605469 79.210938 264.367188 80.449219 266.097656 81.734375 C 267.832031 83.019531 269.53125 84.347656 271.199219 85.714844 C 272.863281 87.082031 274.496094 88.488281 276.09375 89.9375 C 277.691406 91.386719 279.253906 92.871094 280.777344 94.398438 C 282.300781 95.921875 283.789062 97.484375 285.238281 99.082031 C 286.683594 100.679688 288.09375 102.308594 289.460938 103.976562 C 290.828125 105.644531 292.15625 107.34375 293.4375 109.074219 C 294.722656 110.808594 295.964844 112.570312 297.164062 114.363281 C 298.359375 116.15625 299.515625 117.976562 300.621094 119.828125 C 301.730469 121.675781 302.792969 123.550781 303.808594 125.453125 C 304.828125 127.355469 305.796875 129.28125 306.71875 131.230469 C 307.640625 133.179688 308.511719 135.148438 309.339844 137.140625 C 310.164062 139.132812 310.9375 141.144531 311.664062 143.175781 C 312.390625 145.203125 313.070312 147.25 313.695312 149.316406 C 314.320312 151.378906 314.894531 153.457031 315.417969 155.546875 C 315.941406 157.640625 316.414062 159.742188 316.835938 161.859375 C 317.257812 163.972656 317.625 166.097656 317.941406 168.230469 C 318.257812 170.363281 318.523438 172.5 318.734375 174.648438 C 318.945312 176.792969 319.101562 178.941406 319.210938 181.097656 C 319.316406 183.25 319.367188 185.40625 319.367188 187.5625 Z M 319.367188 187.5625 " fill-opacity="1" fill-rule="nonzero"/><path fill="#ffffff" d="M 168.304688 157.988281 L 161.648438 138.101562 C 161.457031 137.535156 161.238281 136.980469 160.992188 136.4375 C 160.742188 135.894531 160.46875 135.367188 160.164062 134.851562 C 159.859375 134.339844 159.53125 133.839844 159.175781 133.363281 C 158.816406 132.882812 158.4375 132.421875 158.035156 131.984375 C 157.628906 131.542969 157.203125 131.128906 156.753906 130.734375 C 156.304688 130.339844 155.839844 129.96875 155.351562 129.625 C 154.863281 129.277344 154.359375 128.960938 153.839844 128.667969 C 153.320312 128.375 152.785156 128.113281 152.234375 127.875 C 151.6875 127.640625 151.128906 127.433594 150.558594 127.257812 C 149.988281 127.082031 149.410156 126.933594 148.824219 126.816406 C 148.238281 126.703125 147.648438 126.617188 147.050781 126.5625 C 146.457031 126.511719 145.863281 126.488281 145.265625 126.496094 C 144.667969 126.503906 144.074219 126.546875 143.480469 126.617188 C 142.886719 126.6875 142.300781 126.792969 141.71875 126.925781 C 141.136719 127.058594 140.5625 127.222656 139.996094 127.417969 C 139.433594 127.609375 138.878906 127.832031 138.339844 128.085938 L 127.597656 133.089844 C 126.730469 133.496094 125.902344 133.96875 125.113281 134.515625 C 124.324219 135.058594 123.589844 135.667969 122.902344 136.335938 C 122.21875 137.007812 121.59375 137.730469 121.03125 138.503906 C 120.464844 139.277344 119.972656 140.097656 119.546875 140.953125 C 119.121094 141.8125 118.769531 142.703125 118.496094 143.621094 C 118.21875 144.539062 118.023438 145.472656 117.90625 146.421875 C 117.789062 147.375 117.75 148.328125 117.792969 149.285156 C 117.835938 150.242188 117.960938 151.191406 118.164062 152.125 C 124.886719 183.210938 149.59375 257.640625 233.015625 266.921875 C 233.835938 267.011719 234.664062 267.042969 235.492188 267.015625 C 236.320312 266.984375 237.140625 266.898438 237.957031 266.75 C 238.769531 266.597656 239.570312 266.390625 240.355469 266.125 C 241.140625 265.859375 241.902344 265.539062 242.640625 265.164062 C 243.375 264.785156 244.082031 264.355469 244.757812 263.878906 C 245.433594 263.398438 246.070312 262.871094 246.667969 262.296875 C 247.265625 261.722656 247.820312 261.109375 248.328125 260.457031 C 248.835938 259.804688 249.296875 259.117188 249.703125 258.394531 L 255.242188 248.609375 C 255.515625 248.125 255.765625 247.628906 255.992188 247.121094 C 256.214844 246.609375 256.417969 246.089844 256.589844 245.5625 C 256.765625 245.035156 256.914062 244.496094 257.035156 243.953125 C 257.15625 243.410156 257.253906 242.863281 257.320312 242.308594 C 257.386719 241.757812 257.429688 241.203125 257.441406 240.644531 C 257.457031 240.089844 257.441406 239.53125 257.402344 238.976562 C 257.359375 238.421875 257.292969 237.867188 257.195312 237.320312 C 257.101562 236.773438 256.980469 236.230469 256.828125 235.691406 C 256.679688 235.15625 256.507812 234.628906 256.304688 234.109375 C 256.105469 233.589844 255.878906 233.078125 255.628906 232.582031 C 255.378906 232.085938 255.105469 231.601562 254.804688 231.128906 C 254.507812 230.660156 254.1875 230.203125 253.84375 229.765625 C 253.5 229.328125 253.136719 228.90625 252.753906 228.503906 C 252.371094 228.097656 251.96875 227.714844 251.546875 227.351562 C 251.125 226.988281 250.683594 226.648438 250.230469 226.324219 C 249.773438 226.003906 249.304688 225.707031 248.820312 225.433594 L 248.703125 225.367188 L 233.835938 217.105469 C 233.035156 216.660156 232.207031 216.28125 231.34375 215.972656 C 230.484375 215.664062 229.605469 215.421875 228.707031 215.253906 C 227.808594 215.085938 226.898438 214.992188 225.984375 214.96875 C 225.070312 214.945312 224.160156 214.996094 223.253906 215.121094 C 222.347656 215.246094 221.457031 215.445312 220.582031 215.710938 C 219.707031 215.980469 218.859375 216.316406 218.039062 216.722656 C 217.222656 217.128906 216.4375 217.597656 215.695312 218.128906 C 214.949219 218.660156 214.253906 219.246094 213.601562 219.890625 C 212.957031 220.53125 212.265625 221.117188 211.527344 221.644531 C 210.785156 222.175781 210.011719 222.644531 209.195312 223.046875 C 208.382812 223.453125 207.539062 223.789062 206.671875 224.058594 C 205.804688 224.328125 204.917969 224.527344 204.019531 224.65625 C 203.121094 224.785156 202.214844 224.839844 201.304688 224.820312 C 200.394531 224.804688 199.496094 224.714844 198.601562 224.550781 C 197.707031 224.386719 196.828125 224.15625 195.972656 223.851562 C 195.113281 223.546875 194.289062 223.179688 193.488281 222.742188 C 184.449219 217.773438 172.058594 209.304688 163.371094 196.789062 C 162.886719 196.09375 162.453125 195.363281 162.078125 194.601562 C 161.699219 193.839844 161.382812 193.054688 161.121094 192.242188 C 160.863281 191.433594 160.664062 190.609375 160.527344 189.769531 C 160.390625 188.929688 160.316406 188.085938 160.308594 187.234375 C 160.296875 186.386719 160.351562 185.539062 160.46875 184.695312 C 160.582031 183.855469 160.761719 183.023438 161.003906 182.210938 C 161.242188 181.394531 161.542969 180.601562 161.902344 179.832031 C 162.261719 179.058594 162.675781 178.320312 163.144531 177.609375 L 166.339844 172.804688 C 167.058594 171.726562 167.644531 170.582031 168.101562 169.367188 C 168.554688 168.15625 168.867188 166.910156 169.039062 165.625 C 169.207031 164.339844 169.230469 163.054688 169.109375 161.765625 C 168.984375 160.476562 168.71875 159.21875 168.304688 157.988281 Z M 168.304688 157.988281 " fill-opacity="1" fill-rule="nonzero"/></svg>